<svg xmlns="http://www.w3.org/2000/svg" width="720" height="120" viewBox="0 0 720 120">
  <rect width="720" height="120" fill="#FFFFFF"/>
  <g transform="translate(20 28)" stroke="#175FB8" stroke-width="3" fill="none"><rect x="0" y="8" width="58" height="42" rx="7"/><circle cx="29" cy="29" r="12"/><path d="M12 8l7-8h20l7 8"/></g>
  <g transform="translate(115 24)" fill="#F17822"><circle cx="32" cy="32" r="4"/><circle cx="17" cy="47" r="4"/><circle cx="47" cy="47" r="4"/><circle cx="8" cy="63" r="4"/><circle cx="56" cy="63" r="4"/><circle cx="32" cy="72" r="4"/></g>
  <g transform="translate(210 24)" stroke="#175FB8" stroke-width="2"><g fill="#EAF3FF"><rect x="0" y="0" width="16" height="16"/><rect x="16" y="0" width="16" height="16"/><rect x="32" y="0" width="16" height="16"/><rect x="0" y="16" width="16" height="16"/><rect x="16" y="16" width="16" height="16"/><rect x="32" y="16" width="16" height="16"/><rect x="0" y="32" width="16" height="16"/><rect x="16" y="32" width="16" height="16"/><rect x="32" y="32" width="16" height="16"/></g></g>
  <g transform="translate(310 24)" stroke="#6B4AA5" stroke-width="3" fill="none"><path d="M12 12l42 10M12 12l6 46M54 22L18 58M18 58l43 2M54 22l7 38"/><g fill="#BDA6D7"><circle cx="12" cy="12" r="7"/><circle cx="54" cy="22" r="7"/><circle cx="18" cy="58" r="7"/><circle cx="61" cy="60" r="7"/></g></g>
  <g transform="translate(415 24)" stroke="#147C83" stroke-width="2"><rect x="0" y="0" width="18" height="18" fill="#F2FBFB"/><rect x="18" y="0" width="18" height="18" fill="#A6D9DE"/><rect x="36" y="0" width="18" height="18" fill="#248B98"/><rect x="0" y="18" width="18" height="18" fill="#D7EFF1"/><rect x="18" y="18" width="18" height="18" fill="#248B98"/><rect x="36" y="18" width="18" height="18" fill="#A6D9DE"/><rect x="0" y="36" width="18" height="18" fill="#A6D9DE"/><rect x="18" y="36" width="18" height="18" fill="#D7EFF1"/><rect x="36" y="36" width="18" height="18" fill="#F2FBFB"/></g>
  <g transform="translate(525 38)" fill="#BBD7F3" stroke="#175FB8" stroke-width="2"><circle cx="0" cy="18" r="8"/><circle cx="24" cy="18" r="8"/><circle cx="48" cy="18" r="8"/><circle cx="72" cy="18" r="8"/></g>
  <g transform="translate(640 28)" stroke="#D94A45" stroke-width="3" fill="#FFF4F3"><rect x="0" y="0" width="58" height="58" rx="9"/><path d="M29 13v32M13 29h32"/></g>
</svg>
